<svg height="512" viewBox="0 0 512 512" width="512" xmlns="http://www.w3.org/2000/svg"><g id="filled_outline" data-name="filled outline"><path d="m112 416h360v32h-360z" fill="#683b0d"/><path d="m112 436h360v12h-360z" fill="#55300b"/><path d="m392 448a8 8 0 0 1 -7.588-5.472l-6.178-18.528h-42.234a8 8 0 0 1 -7.589-5.47l-24-72a8 8 0 1 1 15.178-5.06l22.177 66.53h42.234a8 8 0 0 1 7.589 5.47l8 24a8.006 8.006 0 0 1 -7.589 10.53z" fill="#ea9d2d"/><path d="m351.589 437.47-8-24a8 8 0 0 0 -7.589-5.47h-42.048l-19.89-66.3a8 8 0 1 0 -15.325 4.6l29.674 96.231a8 8 0 0 0 15.178-5.06l-4.489-13.471h31.135l6.177 18.53a8 8 0 0 0 15.178-5.06z" fill="#fbb540"/><path d="m488 136-32-32-16 32z" fill="#fbb540"/><path d="m315.7 345.313a105.373 105.373 0 0 0 76.982-177.33 63.993 63.993 0 1 0 -56.71-94.918l-239.972 270.935z" fill="#0bafea"/><circle cx="392" cy="104" fill="#eaeae8" r="64"/><circle cx="401" cy="89" fill="#683b0d" r="15"/><path d="m312 240-61.456 61.456a36 36 0 0 1 -25.456 10.544h-105.088l96-103.529z" fill="#0296e5"/><path d="m312 240-96-32 33.281-38.827a42.769 42.769 0 0 1 37.2-14.675l11.472 1.274a42.773 42.773 0 0 1 38.047 42.511 42.772 42.772 0 0 1 -12.528 30.245z" fill="#fbb540"/><path d="m162 312 90-92 30 10-82 82z" fill="#026ca2"/><path d="m162 312-85.978 87.952 3.978.048h.235a96 96 0 0 0 67.883-28.118l60.782-59.882z" fill="#cbcbcb"/><g fill="#0296e5"><path d="m344 272a8 8 0 0 1 0-16 8.009 8.009 0 0 0 8-8 8 8 0 0 1 16 0 24.028 24.028 0 0 1 -24 24z"/><path d="m352 312a8 8 0 0 1 0-16 8.009 8.009 0 0 0 8-8 8 8 0 0 1 16 0 24.028 24.028 0 0 1 -24 24z"/><path d="m304 312a8 8 0 0 1 0-16 8.009 8.009 0 0 0 8-8 8 8 0 0 1 16 0 24.028 24.028 0 0 1 -24 24z"/></g><path d="m120 312-96 104h.235a96 96 0 0 0 67.883-28.118l69.882-75.882z" fill="#eaeae8"/><circle cx="401" cy="89" r="15"/><path d="m24 424h.235a103.31 103.31 0 0 0 55.524-16.018c.081 0 .159.018.241.018h.235a103.283 103.283 0 0 0 73.5-30.419l24.633-24.268h82.477l16.403 54.687h-165.248a8 8 0 0 0 -8 8v32a8 8 0 0 0 8 8h360a8 8 0 0 0 8-8v-32a8 8 0 0 0 -8-8h-130.234l-18.319-54.957a113.384 113.384 0 0 0 84.615-178.874 72.433 72.433 0 0 0 43.699-30.169h36.239a8 8 0 0 0 5.657-13.657l-28.864-28.863a8.088 8.088 0 0 0 -.876-.747 72 72 0 0 0 -134.502-32.333l-77.615 87.634a50.754 50.754 0 0 0 -8.59 7.932l-225.088 246.608a8 8 0 0 0 5.878 13.426zm118.461-57.774a87.426 87.426 0 0 1 -41.948 23.44l64.687-69.666h24.18zm154.684-122.684-52.258 52.258a27.818 27.818 0 0 1 -19.8 8.2h-5.775l64.754-64.754zm-30.111-9.89-70.347 70.348h-15.67l73-74.623zm39.638 119.661 18.228 54.687h-30.948l-16.406-54.687zm-3.083 84.157-4.489-13.47h31.135l5.333 16h-31.568a7.968 7.968 0 0 0 -.411-2.53zm-183.589-13.47h162.234l5.333 16h-167.567zm344 16h-64a7.968 7.968 0 0 0 -.407-2.53l-4.493-13.47h68.9zm-80.433 0h-31.567a7.968 7.968 0 0 0 -.407-2.53l-4.493-13.47h31.135zm29.509-200.064a97.487 97.487 0 0 1 -97.376 97.377h-121.095l17.573-17.313h12.91a43.713 43.713 0 0 0 31.112-12.887l72.928-72.928a50.773 50.773 0 0 0 -30.294-86.364l-11.472-1.275a51.094 51.094 0 0 0 -5.528-.295l38.178-43.1c0 .285-.013.569-.013.853a72.078 72.078 0 0 0 69.048 71.925 96.985 96.985 0 0 1 24.029 64.007zm55.611-111.936h-8.838c.792-2.218 1.467-4.488 2.04-6.8zm-76.687-80a55.993 55.993 0 0 1 .621 111.983c-.207 0-.414.017-.621.017a56.021 56.021 0 0 1 -49.246-82.688c.022-.04.038-.082.059-.122.052-.085.11-.165.158-.252a56.067 56.067 0 0 1 49.029-28.938zm-136.645 126.379a34.751 34.751 0 0 1 30.241-11.93l11.472 1.275a34.772 34.772 0 0 1 20.747 59.147l-7.976 7.976-80.022-26.674zm-36.977 43.293 18.7 6.142-78.443 80.186h-20.307zm-94.878 102.328h19.865l-62.665 67.488a87.149 87.149 0 0 1 -36.3 18.2z"/><path d="m368 248a8 8 0 0 0 -16 0 8.009 8.009 0 0 1 -8 8 8 8 0 0 0 0 16 24.028 24.028 0 0 0 24-24z"/><path d="m368 280a8 8 0 0 0 -8 8 8.009 8.009 0 0 1 -8 8 8 8 0 0 0 0 16 24.028 24.028 0 0 0 24-24 8 8 0 0 0 -8-8z"/><path d="m320 280a8 8 0 0 0 -8 8 8.009 8.009 0 0 1 -8 8 8 8 0 0 0 0 16 24.028 24.028 0 0 0 24-24 8 8 0 0 0 -8-8z"/></g></svg>