<svg id="Capa_1" enable-background="new 0 0 512 512" height="512" viewBox="0 0 512 512" width="512" xmlns="http://www.w3.org/2000/svg"><g><g><g clip-rule="evenodd" fill-rule="evenodd"><path d="m256 504.5c137.243 0 248.5-111.257 248.5-248.5s-111.257-248.5-248.5-248.5-248.5 111.257-248.5 248.5 111.257 248.5 248.5 248.5zm-25.527-331.848c-22.293 8.261-46.09 6.854-56.019-14.816-8.274-18.058-4.846-43.834 11.912-55.728 11.211-7.956 15.077-12.164 29.876-12.164 24.842 0 46.354 21.552 46.354 46.354-.001 18.566-14.863 29.958-32.123 36.354zm-147.864 171.015c0-24.802 21.512-46.354 46.354-46.354 32.455 0 55.812 35.852 42.162 65.641-9.93 21.67-35.976 32.452-58.269 24.19-17.26-6.395-30.247-24.912-30.247-43.477zm287.491-19.482c-23.827-.68-35.856-31.203-36.954-54.952-.851-18.387 3.834-36.517 20.926-43.766 22.833-9.683 51.074 1.706 60.772 24.576 5.778 13.624 3.414 18.826.466 32.254-4.406 20.072-25.355 42.456-45.21 41.888zm-97.105 45.5c12.427 0 22.5 10.073 22.5 22.5s-10.073 22.5-22.5 22.5c-12.426 0-22.5-10.073-22.5-22.5s10.073-22.5 22.5-22.5z" fill="#fcc062"/><path d="m272.995 429.685c-20.706 0-37.5-16.794-37.5-37.5s16.794-37.5 37.5-37.5 37.5 16.794 37.5 37.5-16.794 37.5-37.5 37.5zm0-60c-12.426 0-22.5 10.073-22.5 22.5s10.074 22.5 22.5 22.5c12.427 0 22.5-10.073 22.5-22.5s-10.074-22.5-22.5-22.5z" fill="#fbb03b"/><path d="m369.672 339.179c-34.289-.979-50.147-39.795-51.51-69.253-1.111-24.01 6.252-48.174 30.053-58.268 30.275-12.84 67.589 2.229 80.439 32.529 7.193 16.96 4.997 24.521 1.308 41.327-5.719 26.048-32.081 54.471-60.29 53.665zm.428-14.994c19.855.567 40.804-21.817 45.211-41.888 2.948-13.428 5.312-18.63-.466-32.254-9.699-22.87-37.939-34.259-60.772-24.576-17.092 7.249-21.777 25.379-20.926 43.766 1.097 23.749 13.126 54.272 36.953 54.952z" fill="#fbb03b"/><path d="m184.762 369.203c-13.156 28.711-47.502 42.982-77.118 32.007-23.22-8.605-40.034-32.784-40.034-57.544 0-33.081 28.23-61.353 61.353-61.353 43.506 0 73.93 47.319 55.799 86.89zm-102.153-25.536c0 18.566 12.987 37.082 30.247 43.478 22.293 8.262 48.339-2.52 58.269-24.19 13.65-29.79-9.707-65.641-42.162-65.641-24.842-.001-46.354 21.551-46.354 46.353z" fill="#fbb03b"/><path d="m235.685 186.717c-28.192 10.447-60.954 7.732-74.867-22.633-11.239-24.529-5.929-58.029 16.867-74.208 14.031-9.959 20.135-14.932 38.557-14.932 33.123 0 61.353 28.272 61.353 61.353 0 25.855-19.372 42.069-41.91 50.42zm-5.212-14.065c17.26-6.396 32.122-17.788 32.122-36.354 0-24.802-21.512-46.354-46.354-46.354-14.798 0-18.665 4.207-29.876 12.164-16.758 11.894-20.186 37.67-11.912 55.728 9.93 21.67 33.727 23.077 56.02 14.816z" fill="#fbb03b"/><path d="m171.125 362.954c13.65-29.79-9.707-65.641-42.162-65.641-24.842 0-46.354 21.552-46.354 46.354 0 18.566 12.987 37.082 30.247 43.478 22.294 8.261 48.34-2.521 58.269-24.191z" fill="#c69c6d"/><path d="m230.473 172.652c17.26-6.396 32.122-17.788 32.122-36.354 0-24.802-21.512-46.354-46.354-46.354-14.798 0-18.665 4.207-29.876 12.164-16.758 11.894-20.186 37.67-11.912 55.728 9.93 21.67 33.727 23.077 56.02 14.816z" fill="#c69c6d"/><path d="m370.1 324.185c19.855.567 40.804-21.817 45.211-41.888 2.948-13.428 5.312-18.63-.466-32.254-9.699-22.87-37.939-34.259-60.772-24.576-17.092 7.249-21.777 25.379-20.926 43.766 1.097 23.749 13.126 54.272 36.953 54.952z" fill="#c69c6d"/><circle cx="272.995" cy="392.185" fill="#c69c6d" r="22.5"/><path d="m267.25 504.235c-132.02-5.884-237.25-114.764-237.25-248.235s105.23-242.351 237.25-248.235c-141.489-6.31-259.75 106.445-259.75 248.235s118.261 254.545 259.75 248.235z" fill="#fbb03b"/><path d="m226.996 91.306c-3.473-.885-7.077-1.361-10.755-1.361-14.798 0-18.665 4.207-29.876 12.164-16.758 11.894-20.186 37.67-11.912 55.728 8.172 17.834 25.737 21.942 44.126 18.233-38.416-9.709-32.588-73.067 8.417-84.764z" fill="#957552"/><path d="m140.221 298.799c-28.423-7.625-57.611 15.541-57.611 44.868 0 18.566 12.987 37.082 30.247 43.478 8.8 3.261 18.185 3.553 26.933 1.381-19.641-5.015-34.68-24.597-34.68-44.859-.001-20.958 15.36-39.595 35.111-44.868z" fill="#957552"/><path d="m280.495 413.403c-19.878-7.026-19.878-35.41 0-42.436-14.482-5.118-30 5.584-30 21.218s15.518 26.336 30 21.218z" fill="#957552"/><path d="m370.1 324.185c4.084.117 8.214-.74 12.238-2.345-29.19-13.129-42.464-87.47.38-98.445-9.383-2.307-19.452-1.827-28.645 2.072-17.092 7.249-21.777 25.379-20.926 43.766 1.097 23.749 13.126 54.272 36.953 54.952z" fill="#957552"/></g><g><path d="m208.865 126.133h15v15h-15z" fill="#fff"/></g><g><path d="m368.219 265.6h15v15h-15z" fill="#fff"/></g><g><path d="m121.354 336.118h15v15h-15z" fill="#fff"/></g><g><path d="m459.372 256.235c-3.589-114.244-89.626-203.735-195.872-203.735v-15c55.216 0 107.42 22.676 146.996 63.85 39.344 40.934 62.026 95.772 63.868 154.415zm-210.872-203.735h-15v-15h15z" fill="#fff"/></g></g><g><path d="m110.25 394.177c5.87 2.176 11.972 3.206 18.035 3.206 20.625 0 40.781-11.931 49.659-31.305 6.3-13.75 6.244-29.208-.16-43.525l-13.692 6.125c4.616 10.319 4.692 21.383.216 31.152-8.29 18.092-30.202 27.189-48.845 20.282-14.454-5.356-25.353-21.023-25.353-36.445 0-20.698 18.156-38.854 38.854-38.854 10.721 0 20.755 4.683 28.255 13.185l11.249-9.922c-10.238-11.606-24.637-18.263-39.504-18.263-13.811 0-27.587 5.859-37.797 16.075-10.204 10.21-16.057 23.98-16.057 37.779-.001 21.723 14.779 42.965 35.14 50.51z"/><path d="m357 232.371c16.82-7.132 37.916-.488 48.028 15.126l12.59-8.154c-6.733-10.396-17.175-18.274-29.403-22.185-12.414-3.969-25.58-3.471-37.072 1.404-17.614 7.47-26.667 25.589-25.49 51.018 1.399 30.272 17.042 61.325 44.232 62.103.32.009.639.014.958.014 23.704-.001 46.784-24.979 51.792-47.791.333-1.518.659-2.929.966-4.257 1.941-8.41 3.475-15.054.984-24.451l-14.499 3.844c1.538 5.803.656 9.623-1.101 17.233-.318 1.378-.655 2.841-1 4.414-3.601 16.399-21.333 36.01-37.131 36.008-.18 0-.361-.003-.54-.008-18.97-.542-28.774-28.279-29.677-47.802-.612-13.233 1.73-30.309 16.363-36.516z"/><path d="m190.707 108.226c1.316-.935 2.532-1.817 3.678-2.649 8.15-5.917 11.2-8.131 21.856-8.131 7.899 0 15.63 2.606 22.357 7.536l8.867-12.098c-9.317-6.829-20.114-10.438-31.225-10.438-15.528 0-21.551 4.373-30.669 10.993-1.104.803-2.278 1.654-3.547 2.555-20.581 14.607-23.494 45.097-14.389 64.968 7.152 15.607 21.273 23.869 39.169 23.869 8.086-.001 16.943-1.688 26.275-5.146 23.87-8.846 37.015-24.254 37.015-43.386 0-11.104-3.609-21.901-10.438-31.223l-12.1 8.865c4.932 6.731 7.538 14.463 7.538 22.357 0 15.894-14.807 24.718-27.228 29.321-10.691 3.962-36.635 10.83-46.595-10.907-6.643-14.5-4.438-36.641 9.436-46.486z"/><path d="m272.995 422.186c16.542 0 30-13.458 30-30s-13.458-30-30-30-30 13.458-30 30 13.458 30 30 30zm0-45c8.271 0 15 6.729 15 15s-6.729 15-15 15-15-6.729-15-15 6.729-15 15-15z"/><path d="m237.858 276.761h15v15h-15z"/><path d="m88.964 219.497h15v15h-15z"/><path d="m318.464 132.497h15v15h-15z"/><path d="m256 497c-132.888 0-241-108.112-241-241 0-61.649 23.272-120.313 65.531-165.183l-10.92-10.283c-44.889 47.663-69.611 109.979-69.611 175.466 0 68.38 26.629 132.667 74.981 181.02 48.352 48.351 112.639 74.98 181.019 74.98 65.488 0 127.803-24.722 175.467-69.611l-10.284-10.92c-44.87 42.259-103.533 65.531-165.183 65.531z"/><path d="m437.019 74.98c-48.352-48.351-112.639-74.98-181.019-74.98-65.485 0-127.8 24.722-175.467 69.611l10.284 10.92c44.872-42.259 103.536-65.531 165.183-65.531 132.888 0 241 108.112 241 241 0 61.647-23.272 120.311-65.531 165.183l10.92 10.283c44.889-47.666 69.611-109.981 69.611-175.466 0-68.38-26.629-132.667-74.981-181.02z"/><path d="m377.359 390.012h15v15h-15z"/></g></g></svg>