<svg id="Layer_1_1_" enable-background="new 0 0 64 64" height="512" viewBox="0 0 64 64" width="512" xmlns="http://www.w3.org/2000/svg"><path d="m61 35.5c0-1.38072-1.11929-2.5-2.5-2.5h-21c-1.38071 0-2.5 1.11929-2.5 2.5 0 1.38071 1.11929 2.5 2.5 2.5h2.5v4c-2.76142 0-5 2.23857-5 5v12c0 1.10457.89543 2 2 2h22c1.10457 0 2-.89543 2-2v-12c0-2.76142-2.23857-5-5-5v-4h2.5c1.38071 0 2.5-1.11929 2.5-2.5z" fill="#5dc4dd"/><path d="m53 49h-3v-3h-4v3h-3v4h3v3h4v-3h3z" fill="#ffb554"/><path d="m29 28c0 11.32184-5.8203 16-13 16s-13-4.67816-13-16 13-25 13-25 13 13.67816 13 25z" fill="#ffb554"/><path d="m25 28c0 3.31371-1.79086 4-4 4s-4-.68629-4-4 4-8 4-8 4 4.68629 4 8z" fill="#ea5b58"/><path d="m51 11c0 3.31371-1.79086 4-4 4s-4-.68629-4-4 4-8 4-8 4 4.68629 4 8z" fill="#ea5b58"/><g fill="#1e191a"><path d="m58.5 39c1.92969 0 3.5-1.57031 3.5-3.5s-1.57031-3.5-3.5-3.5h-21c-1.92969 0-3.5 1.57031-3.5 3.5s1.57031 3.5 3.5 3.5h1.5v2.08301c-2.83398.47754-5 2.94922-5 5.91699v12c0 1.6543 1.3457 3 3 3h22c1.6543 0 3-1.3457 3-3v-12c0-2.96777-2.16602-5.43945-5-5.91699v-2.08301zm-2.5 4c2.20557 0 4 1.79395 4 4v12c0 .55176-.44873 1-1 1h-22c-.55127 0-1-.44824-1-1v-12c0-2.20605 1.79443-4 4-4 .55225 0 1-.44727 1-1v-4c0-.55273-.44775-1-1-1h-2.5c-.82715 0-1.5-.67285-1.5-1.5s.67285-1.5 1.5-1.5h21c.82715 0 1.5.67285 1.5 1.5s-.67285 1.5-1.5 1.5h-2.5c-.55225 0-1 .44727-1 1v4c0 .55273.44775 1 1 1z"/><path d="m53 48h-2v-2c0-.55273-.44775-1-1-1h-4c-.55225 0-1 .44727-1 1v2h-2c-.55225 0-1 .44727-1 1v4c0 .55273.44775 1 1 1h2v2c0 .55273.44775 1 1 1h4c.55225 0 1-.44727 1-1v-2h2c.55225 0 1-.44727 1-1v-4c0-.55273-.44775-1-1-1zm-1 4h-2c-.55225 0-1 .44727-1 1v2h-2v-2c0-.55273-.44775-1-1-1h-2v-2h2c.55225 0 1-.44727 1-1v-2h2v2c0 .55273.44775 1 1 1h2z"/><path d="m16 45c8.7666 0 14-6.35547 14-17 0-11.58887-12.73291-25.11816-13.27539-25.68848-.37695-.39844-1.07227-.39844-1.44922 0-.54248.57032-13.27539 14.09961-13.27539 25.68848 0 10.64453 5.2334 17 14 17zm0-40.51074c2.69873 3.05078 12 14.24121 12 23.51074 0 9.53223-4.37402 15-12 15s-12-5.46777-12-15c0-9.26953 9.30127-20.45996 12-23.51074z"/><path d="m21 33c3.31787 0 5-1.68262 5-5 0-3.64062-4.06641-8.44629-4.23926-8.64941-.37988-.44531-1.1416-.44531-1.52148 0-.17285.20312-4.23926 5.00879-4.23926 8.64941 0 3.31738 1.68213 5 5 5zm.00049-11.38965c1.23193 1.64844 2.99951 4.44043 2.99951 6.38965 0 2.52148-1.0542 3-3 3s-3-.47852-3-3c0-1.94434 1.76807-4.73926 3.00049-6.38965z"/><path d="m47.76074 2.35059c-.37988-.44531-1.1416-.44531-1.52148 0-.17285.20312-4.23926 5.00879-4.23926 8.64941 0 3.31738 1.68213 5 5 5s5-1.68262 5-5c0-3.64062-4.06641-8.44629-4.23926-8.64941zm-.76074 11.64941c-1.9458 0-3-.47852-3-3 0-1.94434 1.76807-4.73926 3.00049-6.38965 1.23193 1.64844 2.99951 4.44043 2.99951 6.38965 0 2.52148-1.0542 3-3 3z"/><path d="m26 11h10.58594l-2.29297 2.29297 1.41406 1.41406 4-4c.39062-.39062.39062-1.02344 0-1.41406l-4-4-1.41406 1.41406 2.29297 2.29297h-10.58594z"/><path d="m46 18v8.58594l-2.29297-2.29297-1.41406 1.41406 4 4c.19531.19531.45117.29297.70703.29297s.51172-.09766.70703-.29297l4-4-1.41406-1.41406-2.29297 2.29297v-8.58594z"/></g></svg>