<?xml version="1.0" standalone="no"?>
<!DOCTYPE svg PUBLIC "-//W3C//DTD SVG 20010904//EN"
 "http://www.w3.org/TR/2001/REC-SVG-20010904/DTD/svg10.dtd">
<svg version="1.0" xmlns="http://www.w3.org/2000/svg"
 width="1600.000000pt" height="1600.000000pt" viewBox="0 0 1600.000000 1600.000000"
 preserveAspectRatio="xMidYMid meet">

<g transform="translate(0.000000,1600.000000) scale(0.100000,-0.100000)"
fill="#000000" stroke="none">
<path d="M854 15164 c-91 -15 -199 -51 -294 -99 -124 -62 -281 -195 -350 -295
-13 -19 -29 -40 -36 -47 -21 -22 -92 -168 -118 -244 -142 -418 3 -879 361
-1146 123 -91 262 -153 415 -185 94 -19 14242 -19 14336 0 483 101 832 524
832 1010 0 87 -25 228 -57 322 -25 74 -96 221 -117 243 -6 7 -28 35 -48 62
-138 190 -391 339 -648 381 -126 21 -14153 19 -14276 -2z"/>
<path d="M830 9006 c-83 -19 -161 -44 -176 -57 -8 -6 -14 -9 -14 -5 0 6 -77
-32 -150 -75 -77 -44 -183 -137 -173 -152 3 -6 1 -7 -5 -3 -24 14 -136 -130
-196 -251 -54 -110 -60 -129 -86 -232 -43 -170 -35 -372 22 -544 29 -90 101
-230 152 -295 44 -57 145 -160 201 -204 43 -34 223 -138 242 -140 5 0 13 -2
18 -4 36 -13 129 -44 132 -44 2 0 1 5 -3 11 -3 6 6 3 22 -7 27 -18 158 -19
4309 -19 3555 0 4288 2 4330 13 152 41 320 124 411 203 208 180 332 388 374
627 14 82 14 262 0 344 -41 238 -168 451 -370 624 -98 83 -221 146 -395 202
-46 15 -426 16 -4320 18 -3385 2 -4281 -1 -4325 -10z"/>
<path d="M910 2864 c-146 -23 -234 -49 -342 -104 -400 -202 -628 -646 -553
-1076 21 -115 57 -219 113 -324 25 -47 48 -87 51 -90 3 -3 19 -23 36 -45 115
-157 297 -286 492 -351 176 -58 -364 -54 7293 -54 7604 0 7125 -3 7286 50 195
65 403 214 504 360 13 19 29 40 36 47 21 22 92 168 117 243 30 87 57 244 57
329 0 376 -227 741 -567 910 -87 43 -130 60 -233 88 -62 17 -388 18 -7165 19
-3905 1 -7111 0 -7125 -2z"/>
</g>
</svg>
