<svg height="512" viewBox="0 0 128 128" width="512" xmlns="http://www.w3.org/2000/svg"><g><g fill="#bae543"><path d="m80.96 51.29c-1.42 3.38-8.63 4.77-11.68 7.84-2.96 2.99-5.28 5.69-5.28 10.12 0-4.43-2.32-7.13-5.28-10.12-3.05-3.07-10.26-4.46-11.68-7.84-1.02-2.43.28-5.61 2.84-7.48-2.71-1.93-4.36-5.23-3.62-7.33.77-2.2 4.44-1.56 6.22-1.1-4-6.13-5.64-9.34-4.03-11.43 1.99-2.57 6.81-.28 9.38 3.63-.19-7.75 0-21.08 6.17-21.08s6.36 13.33 6.17 21.08c2.57-3.91 7.39-6.2 9.38-3.63 1.61 2.09-.03 5.3-4.03 11.43 1.78-.46 5.45-1.1 6.22 1.1.74 2.1-.91 5.4-3.62 7.33 2.56 1.87 3.86 5.05 2.84 7.48z"/><path d="m93.19 84.221c-2.186.516-5.6-3.166-8.342-3.813-2.672-.623-4.963-.991-7.424.521 2.461-1.512 3.169-3.722 3.819-6.387.665-2.742-1.079-7.448.369-9.164a4.5 4.5 0 0 1 5.121-.981c.156-2.162 1.421-4.2 2.84-4.507 1.485-.324 2.382 1.934 2.734 3.079 2.04-4.314 3.264-6.321 4.974-6.14 2.113.225 2.48 3.688 1.185 6.45 4.241-2.751 11.71-7.195 13.816-3.767s-5.234 8.083-9.6 10.622c3.049.093 5.967 1.989 5.218 3.972-.611 1.608-2.954 1.792-7.725 1.663.863.831 2.471 2.652 1.512 3.83-.914 1.128-3.31 1.338-5.308.491a4.494 4.494 0 0 1 -3.189 4.131z"/><path d="m34.81 84.221c2.186.516 5.6-3.166 8.342-3.813 2.672-.623 4.963-.991 7.424.521-2.461-1.512-3.169-3.722-3.819-6.387-.665-2.742 1.079-7.448-.369-9.164a4.5 4.5 0 0 0 -5.121-.981c-.156-2.162-1.421-4.2-2.84-4.507-1.485-.324-2.382 1.934-2.734 3.079-2.04-4.314-3.264-6.321-4.974-6.14-2.113.225-2.48 3.688-1.185 6.45-4.241-2.751-11.71-7.195-13.816-3.767s5.234 8.083 9.6 10.622c-3.049.093-5.967 1.989-5.218 3.972.611 1.608 2.954 1.792 7.725 1.663-.863.831-2.471 2.652-1.512 3.83.914 1.128 3.31 1.338 5.308.491a4.494 4.494 0 0 0 3.189 4.131z"/></g><g fill="#1e0c30"><path d="m57.859 20.125c.046 0 .093.006.139.006a1.749 1.749 0 0 0 1.742-1.613c.074-.942.169-1.832.282-2.647a1.75 1.75 0 1 0 -3.466-.48c-.122.882-.225 1.842-.3 2.853a1.749 1.749 0 0 0 1.603 1.881z"/><path d="m69.968 53.224a1.742 1.742 0 0 0 .806-.2c.741-.384 1.479-.74 2.19-1.082.845-.406 2-.963 2.85-1.456a1.749 1.749 0 0 0 -1.755-3.027c-.733.425-1.82.947-2.613 1.329-.742.357-1.513.729-2.287 1.131a1.75 1.75 0 0 0 .809 3.3z"/><path d="m113.773 58.6a4.254 4.254 0 0 0 -2.757-1.943c-2.31-.523-5.482.426-10.057 3.044a6.014 6.014 0 0 0 -.692-2.707 3.612 3.612 0 0 0 -2.8-1.9c-2.311-.238-3.867 1.6-5.233 4.093a3.177 3.177 0 0 0 -3.027-1c-1.685.363-3.149 2-3.831 4.108a5.955 5.955 0 0 0 -5.1 1.962c-1.3 1.542-1.051 3.913-.809 6.206a12.755 12.755 0 0 1 .077 3.672c-.684 2.8-1.285 4.235-3.035 5.311-.029.018-.05.044-.078.063a56.109 56.109 0 0 0 -10.68 8.86v-19.119c0-3.774 1.979-6.065 4.771-8.887a19.67 19.67 0 0 1 5.044-3.012c2.925-1.408 5.95-2.863 7.008-5.383a7.862 7.862 0 0 0 -1.821-8.123c2.328-2.4 3.463-5.61 2.64-7.943-.386-1.1-1.454-2.63-4.4-2.731 2.683-4.427 3.928-7.713 1.941-10.292a4.658 4.658 0 0 0 -3.959-1.764 9.273 9.273 0 0 0 -5.02 2.026c-.077-6.4-.809-13.491-3.87-16.628a5.608 5.608 0 0 0 -4.085-1.763c-1.906 0-4.522.908-6.164 5.233a1.751 1.751 0 0 0 3.273 1.243c1.128-2.976 2.455-2.976 2.891-2.976a2.107 2.107 0 0 1 1.58.707c2.134 2.188 3.09 8.439 2.841 18.58a1.749 1.749 0 0 0 3.211 1c1.629-2.477 4.038-3.872 5.477-3.928a1.1 1.1 0 0 1 1.055.406c.914 1.186-.895 4.478-4.11 9.405a1.75 1.75 0 0 0 1.9 2.65c2.681-.692 4.014-.352 4.133-.011.416 1.181-.8 3.763-2.986 5.323a1.75 1.75 0 0 0 -.016 2.838c1.94 1.417 2.933 3.784 2.259 5.388-.545 1.3-3.071 2.513-5.3 3.584a21.916 21.916 0 0 0 -6.012 3.7c-.81.82-1.582 1.631-2.286 2.469v-22.361a1.75 1.75 0 0 0 -3.5 0v22.368c-.7-.839-1.477-1.651-2.289-2.472a21.9 21.9 0 0 0 -6.009-3.7c-2.228-1.071-4.754-2.287-5.3-3.584-.674-1.6.319-3.971 2.259-5.388a1.75 1.75 0 0 0 -.016-2.838c-2.189-1.56-3.4-4.142-2.985-5.327.118-.336 1.448-.676 4.132.015a1.75 1.75 0 0 0 1.9-2.65c-3.215-4.927-5.024-8.219-4.112-9.4a1.1 1.1 0 0 1 1.057-.408c1.439.056 3.848 1.451 5.477 3.928a1.749 1.749 0 0 0 3.211-1c-.023-.965-.041-2.018-.042-3.121a1.75 1.75 0 0 0 -1.75-1.748 1.747 1.747 0 0 0 -1.417.726 9.492 9.492 0 0 0 -5.343-2.278 4.663 4.663 0 0 0 -3.961 1.767c-1.986 2.577-.74 5.862 1.943 10.288-2.945.1-4.013 1.629-4.4 2.728-.823 2.336.311 5.544 2.639 7.947-2.129 2.385-2.9 5.552-1.821 8.123 1.058 2.52 4.083 3.975 7.008 5.383a19.651 19.651 0 0 1 5.041 3.01c2.8 2.824 4.774 5.115 4.774 8.889v19.103a56.109 56.109 0 0 0 -10.672-8.861c-.028-.019-.049-.044-.078-.063-1.75-1.076-2.351-2.507-3.034-5.308a12.734 12.734 0 0 1 .076-3.675c.242-2.293.492-4.664-.8-6.2a5.914 5.914 0 0 0 -5.105-1.969c-.682-2.107-2.145-3.746-3.827-4.108a3.181 3.181 0 0 0 -3.03 1c-1.366-2.5-2.915-4.333-5.236-4.093a3.612 3.612 0 0 0 -2.8 1.9 6.014 6.014 0 0 0 -.692 2.707c-4.575-2.62-7.747-3.568-10.057-3.044a4.27 4.27 0 0 0 -3.244 5.281c.577 2.3 2.857 4.7 7.262 7.595a6.024 6.024 0 0 0 -2.1 1.84 3.616 3.616 0 0 0 -.433 3.36c.833 2.186 3.173 2.729 6.016 2.818a3.18 3.18 0 0 0 .474 3.154c1.088 1.344 3.208 1.907 5.4 1.561a5.942 5.942 0 0 0 4.054 3.663 3.678 3.678 0 0 0 .838.1c1.692 0 3.4-1.106 5.063-2.181a12.759 12.759 0 0 1 3.239-1.728c2.743-.641 4.284-.753 5.982.241 6.121 4.13 11.6 8.638 12.717 12.676v9.138c0 9.083-5.393 16.192-5.445 16.261a1.749 1.749 0 1 0 2.765 2.144 32.749 32.749 0 0 0 6.18-18.4v-9.141c1.112-4.038 6.6-8.546 12.717-12.676 1.7-.994 3.24-.882 5.982-.241a1.75 1.75 0 1 0 .8-3.408c-.277-.064-.552-.116-.828-.174 1.31-.811 2.6-1.594 3.818-2.338 2.368-1.44 4.6-2.8 6.476-4.031a1.75 1.75 0 1 0 -1.924-2.924c-1.819 1.2-4.03 2.541-6.371 3.965-1.17.712-2.375 1.445-3.591 2.2.037-.149.082-.294.118-.444a14.812 14.812 0 0 0 0-4.866c-.117-1.107-.334-3.167.01-3.589a2.811 2.811 0 0 1 3.117-.482 1.751 1.751 0 0 0 2.406-1.495 4.018 4.018 0 0 1 1.3-2.843 5.37 5.37 0 0 1 .855 1.8 1.75 1.75 0 0 0 3.255.236c1.639-3.468 2.7-5.225 3.224-5.147.3.188.716 1.945-.232 3.965a1.75 1.75 0 0 0 2.537 2.211c6.735-4.37 9.6-4.957 10.826-4.681a.777.777 0 0 1 .622 1.013c-.3 1.215-2.128 3.51-9.067 7.542a1.75 1.75 0 0 0 .825 3.262c2.231.068 3.611 1.232 3.637 1.6-.175.461-2.212.64-6.042.538a1.68 1.68 0 0 0 -1.662 1.072 1.749 1.749 0 0 0 .4 1.936 5.394 5.394 0 0 1 1.226 1.58 3.98 3.98 0 0 1 -3.124-.129 1.75 1.75 0 0 0 -2.427 1.471 2.809 2.809 0 0 1 -1.845 2.568 1.611 1.611 0 0 1 -.78-.207 1.749 1.749 0 1 0 -1.383 3.214 5.407 5.407 0 0 0 2.127.5 3.637 3.637 0 0 0 .833-.095 5.939 5.939 0 0 0 4.06-3.664c2.19.348 4.31-.216 5.4-1.557a3.184 3.184 0 0 0 .477-3.158c2.843-.089 5.184-.633 6.018-2.823a3.615 3.615 0 0 0 -.435-3.355 6.024 6.024 0 0 0 -2.1-1.84c4.405-2.9 6.685-5.3 7.262-7.595a4.247 4.247 0 0 0 -.499-3.34zm-71.022 20.105a14.849 14.849 0 0 0 -4.341 2.2c-.934.605-2.667 1.743-3.2 1.617l-.4 1.7.393-1.7a2.809 2.809 0 0 1 -1.835-2.566 1.749 1.749 0 0 0 -2.427-1.471 3.983 3.983 0 0 1 -3.123.128 5.39 5.39 0 0 1 1.225-1.579 1.75 1.75 0 0 0 -1.215-3.009h-.048c-3.836.1-5.867-.078-6.046-.548.03-.357 1.41-1.521 3.641-1.589a1.75 1.75 0 0 0 .825-3.262c-6.939-4.032-8.762-6.327-9.067-7.542a.777.777 0 0 1 .622-1.013c1.219-.276 4.091.311 10.826 4.681a1.75 1.75 0 0 0 2.537-2.211c-.948-2.02-.536-3.777-.217-3.967h.022c.5 0 1.571 1.732 3.187 5.15a1.75 1.75 0 0 0 3.255-.236 5.388 5.388 0 0 1 .855-1.8 4.017 4.017 0 0 1 1.3 2.844 1.751 1.751 0 0 0 2.406 1.495 2.811 2.811 0 0 1 3.123.49c.338.414.121 2.474 0 3.581a14.8 14.8 0 0 0 0 4.869c.036.149.08.293.118.441-1.217-.751-2.422-1.484-3.592-2.2-2.341-1.424-4.552-2.768-6.371-3.965a1.75 1.75 0 1 0 -1.924 2.924c1.871 1.231 4.108 2.591 6.476 4.031 1.222.744 2.508 1.527 3.819 2.338-.27.053-.546.104-.824.169z"/></g></g></svg>