<svg id="Capa_1" enable-background="new 0 0 512 512" height="512" viewBox="0 0 512 512" width="512" xmlns="http://www.w3.org/2000/svg"><g><g><path d="m387.321 504.5h-262.642c-22.316 0-40.407-18.091-40.407-40.406v-416.187c0-22.316 18.091-40.407 40.407-40.407h262.642c22.316 0 40.406 18.091 40.406 40.407v416.187c.001 22.315-18.09 40.406-40.406 40.406z" fill="#ffe07d"/></g><g><path d="m387.321 7.5h-24.244c22.316 0 40.406 18.091 40.406 40.407v416.187c0 22.316-18.091 40.406-40.406 40.406h24.244c22.316 0 40.406-18.091 40.406-40.406v-416.187c.001-22.316-18.09-40.407-40.406-40.407z" fill="#ffd064"/></g><g><g><path d="m116.598 65.079c0-13.947 11.307-25.254 25.254-25.254h28.285v50.508h-28.285c-13.948 0-25.254-11.306-25.254-25.254z" fill="#df75a5"/></g><g><path d="m170.136 90.333v-50.508h28.285c13.947 0 25.254 11.307 25.254 25.254 0 13.947-11.307 25.254-25.254 25.254z" fill="#9dc6fb"/></g><g><path d="m118.705 54.978c-1.352 3.094-2.107 6.509-2.107 10.102 0 13.947 11.307 25.254 25.254 25.254h28.285v-20.204h-28.285c-10.355 0-19.25-6.234-23.147-15.152z" fill="#dd5790"/></g><g><path d="m198.421 70.13h-28.285v20.203h28.285c13.947 0 25.254-11.307 25.254-25.254 0-3.593-.755-7.007-2.107-10.102-3.898 8.919-12.792 15.153-23.147 15.153z" fill="#80b4fb"/></g></g><g><g><path d="m116.598 446.921c0-13.947 11.307-25.254 25.254-25.254h28.285v50.508h-28.285c-13.948 0-25.254-11.307-25.254-25.254z" fill="#df75a5"/></g><g><path d="m170.136 472.175v-50.508h28.285c13.947 0 25.254 11.307 25.254 25.254 0 13.947-11.307 25.254-25.254 25.254z" fill="#9dc6fb"/></g><g><path d="m118.705 436.819c-1.352 3.094-2.107 6.509-2.107 10.102 0 13.947 11.307 25.254 25.254 25.254h28.285v-20.203h-28.285c-10.355 0-19.25-6.235-23.147-15.153z" fill="#dd5790"/></g><g><path d="m198.421 451.972h-28.285v20.203h28.285c13.947 0 25.254-11.307 25.254-25.254 0-3.593-.755-7.007-2.107-10.102-3.898 8.918-12.792 15.153-23.147 15.153z" fill="#80b4fb"/></g></g><g><g><path d="m116.598 351.46c0-13.947 11.307-25.254 25.254-25.254h28.285v50.508h-28.285c-13.948 0-25.254-11.306-25.254-25.254z" fill="#df75a5"/></g><g><path d="m170.136 376.714v-50.508h28.285c13.947 0 25.254 11.307 25.254 25.254 0 13.947-11.307 25.254-25.254 25.254z" fill="#9dc6fb"/></g><g><path d="m118.705 341.359c-1.352 3.094-2.107 6.509-2.107 10.102 0 13.947 11.307 25.254 25.254 25.254h28.285v-20.203h-28.285c-10.355-.001-19.25-6.235-23.147-15.153z" fill="#dd5790"/></g><g><path d="m198.421 356.511h-28.285v20.203h28.285c13.947 0 25.254-11.307 25.254-25.254 0-3.593-.755-7.007-2.107-10.102-3.898 8.919-12.792 15.153-23.147 15.153z" fill="#80b4fb"/></g></g><g><g><path d="m116.598 256c0-13.947 11.307-25.254 25.254-25.254h28.285v50.508h-28.285c-13.948 0-25.254-11.307-25.254-25.254z" fill="#df75a5"/></g><g><path d="m170.136 281.254v-50.508h28.285c13.947 0 25.254 11.307 25.254 25.254 0 13.947-11.307 25.254-25.254 25.254z" fill="#9dc6fb"/></g><g><path d="m118.705 245.898c-1.352 3.094-2.107 6.509-2.107 10.102 0 13.947 11.307 25.254 25.254 25.254h28.285v-20.203h-28.285c-10.355 0-19.25-6.235-23.147-15.153z" fill="#dd5790"/></g><g><path d="m198.421 261.051h-28.285v20.203h28.285c13.947 0 25.254-11.307 25.254-25.254 0-3.593-.755-7.007-2.107-10.102-3.898 8.918-12.792 15.153-23.147 15.153z" fill="#80b4fb"/></g></g><g><g><path d="m116.598 160.54c0-13.947 11.307-25.254 25.254-25.254h28.285v50.508h-28.285c-13.948 0-25.254-11.307-25.254-25.254z" fill="#df75a5"/></g><g><path d="m170.136 185.794v-50.508h28.285c13.947 0 25.254 11.307 25.254 25.254 0 13.947-11.307 25.254-25.254 25.254z" fill="#9dc6fb"/></g><g><path d="m118.705 150.438c-1.352 3.094-2.107 6.509-2.107 10.102 0 13.947 11.307 25.254 25.254 25.254h28.285v-20.204h-28.285c-10.355 0-19.25-6.234-23.147-15.152z" fill="#dd5790"/></g><g><path d="m198.421 165.59h-28.285v20.203h28.285c13.947 0 25.254-11.307 25.254-25.254 0-3.593-.755-7.007-2.107-10.102-3.898 8.919-12.792 15.153-23.147 15.153z" fill="#80b4fb"/></g></g><g><g><path d="m288.325 65.079c0-13.947 11.307-25.254 25.254-25.254h28.285v50.508h-28.285c-13.947 0-25.254-11.306-25.254-25.254z" fill="#df75a5"/></g><g><path d="m341.864 90.333v-50.508h28.285c13.947 0 25.254 11.307 25.254 25.254 0 13.947-11.307 25.254-25.254 25.254z" fill="#9dc6fb"/></g><g><path d="m290.433 54.978c-1.352 3.094-2.107 6.509-2.107 10.102 0 13.947 11.307 25.254 25.254 25.254h28.285v-20.204h-28.285c-10.356 0-19.25-6.234-23.147-15.152z" fill="#dd5790"/></g><g><path d="m370.148 70.13h-28.285v20.203h28.285c13.947 0 25.254-11.307 25.254-25.254 0-3.593-.755-7.007-2.107-10.102-3.897 8.919-12.792 15.153-23.147 15.153z" fill="#80b4fb"/></g></g><g><g><path d="m288.325 446.921c0-13.947 11.307-25.254 25.254-25.254h28.285v50.508h-28.285c-13.947 0-25.254-11.307-25.254-25.254z" fill="#df75a5"/></g><g><path d="m341.864 472.175v-50.508h28.285c13.947 0 25.254 11.307 25.254 25.254 0 13.947-11.307 25.254-25.254 25.254z" fill="#9dc6fb"/></g><g><path d="m290.433 436.819c-1.352 3.094-2.107 6.509-2.107 10.102 0 13.947 11.307 25.254 25.254 25.254h28.285v-20.203h-28.285c-10.356 0-19.25-6.235-23.147-15.153z" fill="#dd5790"/></g><g><path d="m370.148 451.972h-28.285v20.203h28.285c13.947 0 25.254-11.307 25.254-25.254 0-3.593-.755-7.007-2.107-10.102-3.897 8.918-12.792 15.153-23.147 15.153z" fill="#80b4fb"/></g></g><g><g><path d="m288.325 351.46c0-13.947 11.307-25.254 25.254-25.254h28.285v50.508h-28.285c-13.947 0-25.254-11.306-25.254-25.254z" fill="#df75a5"/></g><g><path d="m341.864 376.714v-50.508h28.285c13.947 0 25.254 11.307 25.254 25.254 0 13.947-11.307 25.254-25.254 25.254z" fill="#9dc6fb"/></g><g><path d="m290.433 341.359c-1.352 3.094-2.107 6.509-2.107 10.102 0 13.947 11.307 25.254 25.254 25.254h28.285v-20.203h-28.285c-10.356-.001-19.25-6.235-23.147-15.153z" fill="#dd5790"/></g><g><path d="m370.148 356.511h-28.285v20.203h28.285c13.947 0 25.254-11.307 25.254-25.254 0-3.593-.755-7.007-2.107-10.102-3.897 8.919-12.792 15.153-23.147 15.153z" fill="#80b4fb"/></g></g><g><g><path d="m288.325 256c0-13.947 11.307-25.254 25.254-25.254h28.285v50.508h-28.285c-13.947 0-25.254-11.307-25.254-25.254z" fill="#df75a5"/></g><g><path d="m341.864 281.254v-50.508h28.285c13.947 0 25.254 11.307 25.254 25.254 0 13.947-11.307 25.254-25.254 25.254z" fill="#9dc6fb"/></g><g><path d="m290.433 245.898c-1.352 3.094-2.107 6.509-2.107 10.102 0 13.947 11.307 25.254 25.254 25.254h28.285v-20.203h-28.285c-10.356 0-19.25-6.235-23.147-15.153z" fill="#dd5790"/></g><g><path d="m370.148 261.051h-28.285v20.203h28.285c13.947 0 25.254-11.307 25.254-25.254 0-3.593-.755-7.007-2.107-10.102-3.897 8.918-12.792 15.153-23.147 15.153z" fill="#80b4fb"/></g></g><g><g><path d="m288.325 160.54c0-13.947 11.307-25.254 25.254-25.254h28.285v50.508h-28.285c-13.947 0-25.254-11.307-25.254-25.254z" fill="#df75a5"/></g><g><path d="m341.864 185.794v-50.508h28.285c13.947 0 25.254 11.307 25.254 25.254 0 13.947-11.307 25.254-25.254 25.254z" fill="#9dc6fb"/></g><g><path d="m290.433 150.438c-1.352 3.094-2.107 6.509-2.107 10.102 0 13.947 11.307 25.254 25.254 25.254h28.285v-20.204h-28.285c-10.356 0-19.25-6.234-23.147-15.152z" fill="#dd5790"/></g><g><path d="m370.148 165.59h-28.285v20.203h28.285c13.947 0 25.254-11.307 25.254-25.254 0-3.593-.755-7.007-2.107-10.102-3.897 8.919-12.792 15.153-23.147 15.153z" fill="#80b4fb"/></g></g><g><path d="m141.852 97.833h56.569c18.061 0 32.754-14.693 32.754-32.754s-14.693-32.754-32.754-32.754h-56.569c-18.061 0-32.754 14.693-32.754 32.754s14.693 32.754 32.754 32.754zm74.323-32.754c0 9.789-7.964 17.754-17.754 17.754h-20.785v-35.508h20.785c9.789 0 17.754 7.965 17.754 17.754zm-74.323-17.754h20.785v35.508h-20.785c-9.79 0-17.754-7.965-17.754-17.754s7.964-17.754 17.754-17.754z"/><path d="m141.852 479.675h56.569c18.061 0 32.754-14.693 32.754-32.754s-14.693-32.754-32.754-32.754h-56.569c-18.061 0-32.754 14.693-32.754 32.754s14.693 32.754 32.754 32.754zm74.323-32.754c0 9.789-7.964 17.754-17.754 17.754h-20.785v-35.508h20.785c9.789 0 17.754 7.965 17.754 17.754zm-74.323-17.754h20.785v35.508h-20.785c-9.79 0-17.754-7.965-17.754-17.754s7.964-17.754 17.754-17.754z"/><path d="m141.852 384.215h56.569c18.061 0 32.754-14.693 32.754-32.755 0-18.061-14.693-32.754-32.754-32.754h-56.569c-18.061 0-32.754 14.693-32.754 32.754s14.693 32.755 32.754 32.755zm74.323-32.755c0 9.79-7.964 17.755-17.754 17.755h-20.785v-35.509h20.785c9.789 0 17.754 7.965 17.754 17.754zm-74.323-17.754h20.785v35.509h-20.785c-9.79 0-17.754-7.965-17.754-17.755 0-9.789 7.964-17.754 17.754-17.754z"/><path d="m141.852 288.754h56.569c18.061 0 32.754-14.693 32.754-32.754s-14.693-32.754-32.754-32.754h-56.569c-18.061 0-32.754 14.693-32.754 32.754s14.693 32.754 32.754 32.754zm74.323-32.754c0 9.789-7.964 17.754-17.754 17.754h-20.785v-35.508h20.785c9.789 0 17.754 7.965 17.754 17.754zm-74.323-17.754h20.785v35.508h-20.785c-9.79 0-17.754-7.965-17.754-17.754s7.964-17.754 17.754-17.754z"/><path d="m141.852 193.294h56.569c18.061 0 32.754-14.693 32.754-32.754 0-18.062-14.693-32.755-32.754-32.755h-56.569c-18.061 0-32.754 14.693-32.754 32.755 0 18.061 14.693 32.754 32.754 32.754zm74.323-32.754c0 9.789-7.964 17.754-17.754 17.754h-20.785v-35.509h20.785c9.789 0 17.754 7.965 17.754 17.755zm-74.323-17.755h20.785v35.509h-20.785c-9.79 0-17.754-7.965-17.754-17.754 0-9.79 7.964-17.755 17.754-17.755z"/><path d="m313.579 97.833h56.569c18.061 0 32.754-14.693 32.754-32.754s-14.693-32.754-32.754-32.754h-56.569c-18.061 0-32.754 14.693-32.754 32.754s14.694 32.754 32.754 32.754zm74.323-32.754c0 9.789-7.964 17.754-17.754 17.754h-20.785v-35.508h20.785c9.79 0 17.754 7.965 17.754 17.754zm-74.323-17.754h20.785v35.508h-20.785c-9.79 0-17.754-7.965-17.754-17.754s7.965-17.754 17.754-17.754z"/><path d="m313.579 479.675h56.569c18.061 0 32.754-14.693 32.754-32.754s-14.693-32.754-32.754-32.754h-56.569c-18.061 0-32.754 14.693-32.754 32.754s14.694 32.754 32.754 32.754zm74.323-32.754c0 9.789-7.964 17.754-17.754 17.754h-20.785v-35.508h20.785c9.79 0 17.754 7.965 17.754 17.754zm-74.323-17.754h20.785v35.508h-20.785c-9.79 0-17.754-7.965-17.754-17.754s7.965-17.754 17.754-17.754z"/><path d="m313.579 384.215h56.569c18.061 0 32.754-14.693 32.754-32.755 0-18.061-14.693-32.754-32.754-32.754h-56.569c-18.061 0-32.754 14.693-32.754 32.754s14.694 32.755 32.754 32.755zm74.323-32.755c0 9.79-7.964 17.755-17.754 17.755h-20.785v-35.509h20.785c9.79 0 17.754 7.965 17.754 17.754zm-74.323-17.754h20.785v35.509h-20.785c-9.79 0-17.754-7.965-17.754-17.755 0-9.789 7.965-17.754 17.754-17.754z"/><path d="m313.579 288.754h56.569c18.061 0 32.754-14.693 32.754-32.754s-14.693-32.754-32.754-32.754h-56.569c-18.061 0-32.754 14.693-32.754 32.754s14.694 32.754 32.754 32.754zm74.323-32.754c0 9.789-7.964 17.754-17.754 17.754h-20.785v-35.508h20.785c9.79 0 17.754 7.965 17.754 17.754zm-74.323-17.754h20.785v35.508h-20.785c-9.79 0-17.754-7.965-17.754-17.754s7.965-17.754 17.754-17.754z"/><path d="m313.579 193.294h56.569c18.061 0 32.754-14.693 32.754-32.754 0-18.062-14.693-32.755-32.754-32.755h-56.569c-18.061 0-32.754 14.693-32.754 32.755 0 18.061 14.694 32.754 32.754 32.754zm74.323-32.754c0 9.789-7.964 17.754-17.754 17.754h-20.785v-35.509h20.785c9.79 0 17.754 7.965 17.754 17.755zm-74.323-17.755h20.785v35.509h-20.785c-9.79 0-17.754-7.965-17.754-17.754 0-9.79 7.965-17.755 17.754-17.755z"/><path d="m387.32 0h-262.64c-26.418 0-47.91 21.492-47.91 47.91v318.88c0 4.143 3.358 7.5 7.5 7.5s7.5-3.357 7.5-7.5v-318.88c0-18.146 14.763-32.91 32.91-32.91h262.64c18.147 0 32.91 14.764 32.91 32.91v35.02c0 4.143 3.358 7.5 7.5 7.5s7.5-3.357 7.5-7.5v-35.02c0-26.418-21.492-47.91-47.91-47.91z"/><path d="m427.73 110.43c-4.142 0-7.5 3.357-7.5 7.5v346.16c0 18.146-14.764 32.91-32.91 32.91h-262.64c-18.146 0-32.91-14.764-32.91-32.91v-62.3c0-4.143-3.358-7.5-7.5-7.5s-7.5 3.357-7.5 7.5v62.3c0 26.418 21.492 47.91 47.91 47.91h262.64c26.418 0 47.91-21.492 47.91-47.91v-346.16c0-4.143-3.358-7.5-7.5-7.5z"/><path d="m263.5 472.175v-432.35c0-4.143-3.358-7.5-7.5-7.5s-7.5 3.357-7.5 7.5v432.35c0 4.143 3.358 7.5 7.5 7.5s7.5-3.358 7.5-7.5z"/></g></g></svg>