<svg id="Capa_1" enable-background="new 0 0 512 512" height="512" viewBox="0 0 512 512" width="512" xmlns="http://www.w3.org/2000/svg"><g><path d="m451 37.5v-30h-30l-195 203.5 195 203.5h30v-347c-8.284 0-15-6.716-15-15s6.716-15 15-15z" fill="#c782ff"/><path d="m406 52.5c0-11.391 4.257-21.803 11.261-29.738 2.412-2.733 3.739-6.254 3.739-9.899v-5.363h-300v30c8.284 0 15 6.716 15 15s-6.716 15-15 15v347h300v-322.363c0-3.645-1.327-7.166-3.739-9.899-7.004-7.935-11.261-18.347-11.261-29.738z" fill="#caa6fd"/><path d="m391 127.5v-30h-30l-195 203.5 195 203.5h30v-347c-8.284 0-15-6.716-15-15s6.716-15 15-15z" fill="#ffd959"/><path d="m346 142.5c0-11.391 4.257-21.803 11.261-29.738 2.412-2.733 3.739-6.254 3.739-9.899v-5.363h-300v30c8.284 0 15 6.716 15 15s-6.716 15-15 15v347h300v-322.363c0-3.645-1.327-7.166-3.739-9.899-7.004-7.935-11.261-18.347-11.261-29.738z" fill="#ffeaa6"/><path d="m301 157.5h-30v287h30c16.569 0 30-13.431 30-30v-227c0-16.569-13.432-30-30-30z" fill="#ffc40f"/><path d="m301 414.5v-227c0-16.569-13.431-30-30-30h-120c-16.569 0-30 13.431-30 30v227c0 16.569 13.431 30 30 30h120c16.568 0 30-13.431 30-30z" fill="#ffd959"/><path d="m301 150h-150c-20.678 0-37.5 16.822-37.5 37.5v98.5c0 4.142 3.358 7.5 7.5 7.5s7.5-3.358 7.5-7.5v-98.5c0-12.407 10.093-22.5 22.5-22.5h150c12.407 0 22.5 10.093 22.5 22.5v227c0 12.407-10.093 22.5-22.5 22.5h-150c-12.407 0-22.5-10.093-22.5-22.5v-98.5c0-4.142-3.358-7.5-7.5-7.5s-7.5 3.358-7.5 7.5v98.5c0 20.678 16.822 37.5 37.5 37.5h150c20.678 0 37.5-16.822 37.5-37.5v-227c0-20.678-16.822-37.5-37.5-37.5z"/><path d="m451 45c4.142 0 7.5-3.358 7.5-7.5v-30c0-4.142-3.358-7.5-7.5-7.5h-330c-4.142 0-7.5 3.358-7.5 7.5v30c0 4.142 3.358 7.5 7.5 7.5 4.136 0 7.5 3.364 7.5 7.5s-3.364 7.5-7.5 7.5c-4.142 0-7.5 3.358-7.5 7.5v22.5h-52.5c-4.142 0-7.5 3.358-7.5 7.5v30c0 4.142 3.358 7.5 7.5 7.5 4.136 0 7.5 3.364 7.5 7.5s-3.364 7.5-7.5 7.5c-4.142 0-7.5 3.358-7.5 7.5v347c0 4.142 3.358 7.5 7.5 7.5h330c4.142 0 7.5-3.358 7.5-7.5v-82.5h52.5c4.142 0 7.5-3.358 7.5-7.5v-347c0-4.142-3.358-7.5-7.5-7.5-4.136 0-7.5-3.364-7.5-7.5s3.364-7.5 7.5-7.5zm-67.5 452h-315v-333.285c8.73-3.095 15-11.437 15-21.215s-6.27-18.12-15-21.215v-16.285h315v16.285c-8.73 3.095-15 11.437-15 21.215s6.27 18.12 15 21.215zm60-465.715c-8.73 3.095-15 11.437-15 21.215s6.27 18.12 15 21.215v333.285h-45v-249.5c0-4.142-3.358-7.5-7.5-7.5-4.136 0-7.5-3.364-7.5-7.5s3.364-7.5 7.5-7.5c4.142 0 7.5-3.358 7.5-7.5v-30c0-4.142-3.358-7.5-7.5-7.5h-262.5v-16.285c8.73-3.095 15-11.437 15-21.215s-6.27-18.12-15-21.215v-16.285h315z"/></g></svg>