<svg id="Capa_1" enable-background="new 0 0 512 512" height="512" viewBox="0 0 512 512" width="512" xmlns="http://www.w3.org/2000/svg"><g><path d="m483.287 49.926-106.066 63.64 42.426 42.426 84.853-84.852z" fill="#49f5e8"/><path d="m462.074 28.713-63.64 106.066-42.426-42.426 84.852-84.853z" fill="#dbfffc"/><path d="m370.254 66.746h120v30h-120z" fill="#9bfef7" transform="matrix(.707 -.707 .707 .707 68.215 328.178)"/><path d="m440.864 198.42-106.069-21.215 84.856-63.638 21.213 21.214z" fill="#ffd959"/><path d="m419.651 177.207-84.856-.002-21.21-106.064h63.639l42.427 42.426z" fill="#ffeaa6"/><path d="m198.418 483.292-21.213 21.214-21.213-21.214 21.213-106.066z" fill="#ffeaa6"/><path d="m219.631 419.653-63.639 63.639-148.493-148.492 21.213-21.213z" fill="#fff8e3"/><path d="m440.864 198.42-20.245 22.182-107.037-22.184 106.069-21.211z" fill="#ffeaa6"/><path d="m419.651 177.207-20.245 22.182-85.824-.971-22.179-107.033 22.182-20.244z" fill="#fff8e3"/><path d="m198.418 483.292-21.213-21.213 34.836-207.61 187.366-55.08 21.213 21.213-169.013 185.22c-21.214 23.249-39.117 49.313-53.189 77.47z" fill="#ccc9fa"/><path d="m177.205 462.079-148.493-148.492c28.15-14.078 54.221-31.975 77.464-53.196l185.227-169.006 108.004 108.003-39.56 43.354-93.239 13.258-6.533 96.081-29.68 32.527c-21.215 23.25-39.119 49.314-53.19 77.471z" fill="#dbdeff"/><path d="m260.049 352.06 99.772-109.339c10.809-11.845 10.392-30.096-.947-41.435l-21.213-21.213-142.198 151.765 21.213 21.213c12.096 12.097 31.843 11.645 43.373-.991z" fill="#c782ff"/><path d="m238.836 330.846 99.772-109.339c10.809-11.845 10.391-30.096-.947-41.435l-26.947-26.947c-11.339-11.339-29.59-11.756-41.435-.947l-109.339 99.772c-12.637 11.531-13.088 31.277-.992 43.374l36.514 36.514c12.097 12.096 31.843 11.645 43.374-.992z" fill="#caa6fd"/><path d="m509.803 65.836-63.64-63.64c-2.93-2.928-7.678-2.929-10.607 0l-61.442 61.443h-60.533c-1.87 0-3.674.699-5.056 1.96l-207.402 189.256c-22.741 20.75-48.231 38.252-75.764 52.018-.721.36-1.379.834-1.949 1.405l-21.213 21.213c-2.929 2.929-2.929 7.678 0 10.606l169.706 169.706c1.464 1.464 3.384 2.197 5.303 2.197s3.839-.732 5.303-2.197l21.213-21.213c.57-.57 1.044-1.228 1.405-1.949 13.767-27.533 31.269-53.024 52.019-75.764l189.254-207.403c1.261-1.381 1.96-3.185 1.96-5.055v-60.533l61.443-61.443c2.929-2.929 2.929-7.678 0-10.607zm-76.443 114.476-101.672-101.673h42.426l59.247 59.247v42.426zm-2.87 18.344-10.121 11.091-118.117-118.117 11.091-10.121zm-21.449-106.303 53.033-53.033 10.606 10.606-53.033 53.033zm31.819-74.247 10.607 10.607-53.033 53.033-10.607-10.607zm-194.795 382.66c-19.355 21.21-35.994 44.718-49.577 69.983l-118.998-118.997c-2.929-2.929-7.678-2.929-10.606 0-2.929 2.929-2.929 7.678 0 10.606l120.928 120.928-10.606 10.606-159.099-159.098 10.607-10.607 16.958 16.958c1.464 1.464 3.384 2.197 5.303 2.197s3.839-.732 5.303-2.197c2.929-2.929 2.929-7.678 0-10.606l-15.028-15.027c25.264-13.583 48.772-30.222 69.983-49.577l179.927-164.183 119.088 119.088zm194.795-276.594-10.606-10.606 53.033-53.033 10.606 10.606z"/><path d="m364.178 195.983-48.16-48.161c-14.206-14.205-36.956-14.725-51.795-1.184l-109.338 99.772c-7.64 6.971-11.977 16.503-12.213 26.843-.237 10.339 3.661 20.061 10.974 27.375l57.728 57.727c7.103 7.104 16.479 10.984 26.486 10.984.294 0 .591-.003.887-.01 10.339-.236 19.873-4.574 26.844-12.213l99.772-109.339c13.54-14.84 13.019-37.59-1.185-51.794zm-9.896 41.682-99.772 109.339c-4.183 4.583-9.903 7.186-16.106 7.328-6.184.141-12.036-2.197-16.424-6.584l-57.728-57.727c-4.388-4.388-6.726-10.221-6.584-16.425.142-6.203 2.744-11.923 7.328-16.105l109.339-99.772c8.903-8.125 22.554-7.812 31.076.71l48.16 48.161c8.523 8.522 8.835 22.172.711 31.075z"/></g></svg>